<svg width="24" height="25" viewBox="0 0 24 25" fill="none" xmlns="http://www.w3.org/2000/svg">
<path fill-rule="evenodd" clip-rule="evenodd" d="M17.6569 16.6052L13.4142 12.3625L17.6569 8.1199C18.0472 7.72957 18.0472 7.09601 17.6569 6.70568C17.2665 6.31536 16.633 6.31536 16.2426 6.70568L12 10.9483L7.75736 6.70568C7.36704 6.31536 6.73347 6.31536 6.34315 6.70568C5.95282 7.09601 5.95282 7.72957 6.34315 8.1199L10.5858 12.3625L6.34315 16.6052C5.95212 16.9962 5.95282 17.6291 6.34315 18.0194C6.73347 18.4097 7.36633 18.4104 7.75736 18.0194L12 13.7767L16.2426 18.0194C16.6337 18.4104 17.2665 18.4097 17.6569 18.0194C18.0472 17.6291 18.0479 16.9962 17.6569 16.6052Z" fill="#313037"/>
</svg>
